<svg width="90" height="90" viewBox="0 0 90 90" fill="none" xmlns="http://www.w3.org/2000/svg">
<rect width="90" height="90" rx="8" fill="#0A9396"/>
<path d="M62.4754 53.5835L46.1428 38.9135C45.7929 38.5989 45.339 38.4248 44.8685 38.4248C44.398 38.4248 43.9441 38.5989 43.5942 38.9135L27.266 53.5821C26.9789 53.84 26.7767 54.179 26.6863 54.5543C26.5958 54.9295 26.6214 55.3234 26.7595 55.6838C26.8977 56.0443 27.142 56.3543 27.4601 56.573C27.7782 56.7916 28.1551 56.9087 28.5411 56.9085H31.213V73.9447C31.2134 74.7673 31.5398 75.5562 32.1208 76.1385C32.7017 76.7208 33.4898 77.0492 34.3124 77.0515H55.4202C56.2433 77.0488 57.0319 76.7206 57.614 76.1385C58.196 75.5565 58.5242 74.7678 58.527 73.9447V56.91H61.1988C61.585 56.9104 61.9621 56.7936 62.2805 56.5751C62.5988 56.3565 62.8433 56.0465 62.9816 55.686C63.12 55.3255 63.1457 54.9315 63.0553 54.5561C62.9649 54.1807 62.7627 53.8416 62.4754 53.5835ZM55.8551 73.9447C55.8547 74.0598 55.8087 74.1701 55.7272 74.2513C55.6457 74.3325 55.5353 74.3782 55.4202 74.3782H49.0967V69.2274C49.0948 68.7062 48.8864 68.2071 48.5172 67.8393C48.148 67.4715 47.6481 67.265 47.127 67.265H42.61C42.0876 67.265 41.5866 67.4726 41.2172 67.842C40.8478 68.2114 40.6403 68.7124 40.6403 69.2348V74.3856H34.3124C34.2554 74.3856 34.1991 74.3744 34.1465 74.3526C34.0939 74.3308 34.0461 74.2989 34.0059 74.2586C33.9656 74.2184 33.9337 74.1706 33.9119 74.118C33.8901 74.0654 33.8789 74.0091 33.8789 73.9521V56.91H55.8477L55.8551 73.9447Z" fill="white"/>
<path d="M43.9695 32.8502C44.109 32.8502 46.7497 32.8502 47.1282 32.828C51.5977 32.6291 55.0889 31.2531 57.5189 28.7311C61.0814 25.0424 61.3871 19.8649 61.2565 17.107C61.2177 16.2219 60.8486 15.3834 60.2222 14.757C59.5957 14.1305 58.7573 13.7614 57.8721 13.7226C55.1127 13.592 49.9367 13.9022 46.248 17.4588C45.8651 17.8298 45.508 18.2265 45.1793 18.6463C44.8505 18.2265 44.4934 17.8298 44.1105 17.4588C40.4218 13.8963 35.2443 13.5994 32.4864 13.7226C31.6013 13.7614 30.7628 14.1305 30.1364 14.757C29.5099 15.3834 29.1408 16.2219 29.102 17.107C28.9714 19.8649 29.2816 25.0409 32.8382 28.7311C35.4046 31.3911 39.1453 32.7745 43.9695 32.8502ZM48.1035 19.3825C50.7308 16.8502 54.4388 16.3707 56.8702 16.3707C57.1849 16.3707 57.4788 16.3707 57.746 16.3915C57.9671 16.4031 58.176 16.4966 58.3318 16.6539C58.4877 16.8111 58.5794 17.0208 58.5891 17.242C58.6989 19.5695 58.4585 23.9217 55.5966 26.8905C53.8584 28.694 51.3543 29.7642 48.1435 30.0878C48.1998 29.8378 48.2297 29.5826 48.2326 29.3263C48.2668 26.1379 47.7532 23.4007 46.7022 21.1385C47.0952 20.4977 47.5658 19.9079 48.1035 19.3825ZM31.7724 17.242C31.7838 17.0221 31.8763 16.8143 32.032 16.6586C32.1877 16.5029 32.3956 16.4104 32.6155 16.3989C34.9415 16.2876 39.2952 16.5295 42.2639 19.3899C44.2678 21.3196 45.3663 24.1919 45.5414 27.9295C44.3726 26.2221 42.7064 24.916 40.7692 24.1889L39.9453 26.6797C40.073 26.7242 42.5504 27.597 43.8136 30.1813C39.8325 30.0834 36.7881 28.976 34.7708 26.8845C31.903 23.9099 31.661 19.5621 31.7724 17.242Z" fill="white"/>
</svg>
