<svg width="90" height="91" viewBox="0 0 90 91" fill="none" xmlns="http://www.w3.org/2000/svg">
<rect y="0.5" width="90" height="90" rx="8" fill="#83B8EE"/>
<path d="M62.475 54.0835L46.1425 39.4135C45.7926 39.0989 45.3387 38.9248 44.8681 38.9248C44.3976 38.9248 43.9437 39.0989 43.5938 39.4135L27.2657 54.0821C26.9785 54.34 26.7763 54.679 26.6859 55.0543C26.5955 55.4295 26.621 55.8234 26.7592 56.1838C26.8973 56.5443 27.1416 56.8543 27.4597 57.073C27.7778 57.2916 28.1547 57.4087 28.5407 57.4085H31.2126V74.4447C31.213 75.2673 31.5394 76.0562 32.1204 76.6385C32.7013 77.2208 33.4894 77.5492 34.312 77.5515H55.4198C56.2429 77.5488 57.0316 77.2206 57.6136 76.6385C58.1957 76.0565 58.5239 75.2678 58.5266 74.4447V57.41H61.1985C61.5846 57.4104 61.9618 57.2936 62.2801 57.0751C62.5984 56.8565 62.8429 56.5465 62.9813 56.186C63.1196 55.8255 63.1453 55.4315 63.0549 55.0561C62.9645 54.6807 62.7623 54.3416 62.475 54.0835V54.0835ZM55.8547 74.4447C55.8543 74.5598 55.8083 74.6701 55.7268 74.7513C55.6453 74.8325 55.5349 74.8782 55.4198 74.8782H49.0964V69.7274C49.0944 69.2062 48.886 68.7071 48.5168 68.3393C48.1476 67.9715 47.6477 67.765 47.1266 67.765H42.6097C42.0872 67.765 41.5862 67.9726 41.2168 68.342C40.8474 68.7114 40.6399 69.2124 40.6399 69.7348V74.8856H34.312C34.2551 74.8856 34.1987 74.8744 34.1461 74.8526C34.0935 74.8308 34.0458 74.7989 34.0055 74.7586C33.9653 74.7184 33.9333 74.6706 33.9116 74.618C33.8898 74.5654 33.8786 74.5091 33.8786 74.4521V57.41H55.8473L55.8547 74.4447Z" fill="white"/>
<path d="M43.969 33.3502C44.1085 33.3502 46.7492 33.3502 47.1277 33.328C51.5972 33.1291 55.0885 31.7531 57.5184 29.2311C61.0809 25.5424 61.3867 20.3649 61.256 17.607C61.2172 16.7219 60.8481 15.8834 60.2217 15.257C59.5952 14.6305 58.7568 14.2614 57.8717 14.2226C55.1122 14.092 49.9362 14.4022 46.2475 17.9588C45.8646 18.3298 45.5075 18.7265 45.1788 19.1463C44.85 18.7265 44.4929 18.3298 44.11 17.9588C40.4213 14.3963 35.2438 14.0994 32.4859 14.2226C31.6008 14.2614 30.7623 14.6305 30.1359 15.257C29.5094 15.8834 29.1404 16.7219 29.1015 17.607C28.9709 20.3649 29.2811 25.5409 32.8377 29.2311C35.4042 31.8911 39.1448 33.2745 43.969 33.3502ZM48.103 19.8825C50.7303 17.3502 54.4383 16.8707 56.8697 16.8707C57.1844 16.8707 57.4783 16.8707 57.7455 16.8915C57.9666 16.9031 58.1755 16.9966 58.3314 17.1539C58.4872 17.3111 58.5789 17.5208 58.5886 17.742C58.6985 20.0695 58.458 24.4217 55.5961 27.3905C53.8579 29.194 51.3538 30.2642 48.1431 30.5878C48.1993 30.3378 48.2292 30.0826 48.2321 29.8263C48.2663 26.6379 47.7527 23.9007 46.7017 21.6385C47.0947 20.9977 47.5653 20.4079 48.103 19.8825ZM31.7719 17.742C31.7833 17.5221 31.8758 17.3143 32.0315 17.1586C32.1872 17.0029 32.3951 16.9104 32.615 16.8989C34.941 16.7876 39.2947 17.0295 42.2635 19.8899C44.2674 21.8196 45.3658 24.6919 45.541 28.4295C44.3721 26.7221 42.7059 25.416 40.7687 24.6889L39.9449 27.1797C40.0725 27.2242 42.5499 28.097 43.8131 30.6813C39.832 30.5834 36.7876 29.476 34.7703 27.3845C31.9025 24.4099 31.6606 20.0621 31.7719 17.742Z" fill="white"/>
</svg>
