<svg width="90" height="90" viewBox="0 0 90 90" fill="none" xmlns="http://www.w3.org/2000/svg">
<path d="M0 8C0 3.58172 3.58172 0 8 0H82C86.4183 0 90 3.58172 90 8V82C90 86.4183 86.4183 90 82 90H8C3.58172 90 0 86.4183 0 82V8Z" fill="#27C690"/>
<path d="M70.3655 51.7196L70.2075 49.759L69.8565 47.8493L69.3829 45.9573L68.7513 44.118L67.9616 42.3305L67.0314 40.6116L65.9787 38.9454L64.7687 37.4014L63.4699 35.9434L62.0137 34.5892L60.2769 32.8711L58.4343 31.1531L56.5038 29.1564L54.8194 27.1959L53.1883 25.1826L51.6612 23.0998L50.2051 20.9476L48.837 18.7427L47.5559 16.5044L46.3806 14.2134L45.5206 12.6333L44.6961 14.1958L43.503 16.4868L42.2219 18.726L40.8529 20.93L39.3968 23.0822L37.8706 25.165L36.2386 27.1783L34.5542 29.1398L32.6246 31.1355L30.782 32.8536L29.0275 34.5892L27.5882 35.9434L26.2725 37.4014L25.0794 38.963L24.0089 40.6116L23.0965 42.3305L22.3076 44.118L21.6582 45.9573L21.1847 47.8669L20.8506 49.7757L20.6756 51.7196L20.6578 53.6635L20.7982 55.6074L21.0789 57.5346L21.5356 59.4257L22.1495 61.2835L22.8859 63.1053L23.7815 64.8409L24.8164 66.4904L25.974 68.0696L27.2551 69.5618L28.6588 70.9336L30.185 72.2175L31.7824 73.3635L33.4668 74.3697L35.2382 75.2546L37.0808 76.0016L38.9579 76.5913L40.8885 77.043L42.8536 77.355L44.8365 77.4596H46.2224L48.1875 77.3374L50.1527 77.043L52.0823 76.5913L53.9772 75.984L55.802 75.2379L57.5921 74.3696L59.2765 73.3457L60.8731 72.1997L62.3825 70.9334L63.803 69.5449L65.0841 68.0694L66.2426 66.4902L67.2775 64.824L68.1722 63.0884L68.9096 61.2834L69.5057 59.4255L69.9624 57.5344L70.26 55.6072L70.4359 53.6466L70.3655 51.7196ZM66.891 55.0695L66.628 56.8746L66.2069 58.6277L65.6277 60.3458L64.9258 62.012L64.049 63.6088L63.0664 65.1362L61.9258 66.5765L60.6802 67.9132L59.329 69.1286L57.8729 70.2394L56.3111 71.228L54.6969 72.0611L52.9947 72.7905L51.2401 73.3459L49.4332 73.7624L47.6261 74.0227L45.7657 74.1273H45.31L43.4497 74.0227L41.6249 73.7624L39.8357 73.3459L38.0811 72.7905L36.3789 72.0611L34.7647 71.228L33.2029 70.2394L31.7468 69.1286L30.3956 67.9132L29.1323 66.5765L28.0093 65.1362L27.0268 63.6088L26.1499 62.012L25.4481 60.3458L24.8688 58.6277L24.4477 56.8746L24.1848 55.0695L24.079 53.282L24.1324 51.4594L24.3252 49.6544L24.6939 47.8845L25.202 46.1489L25.8692 44.4651L26.6758 42.8332L27.6238 41.2892L28.6943 39.8136L29.9043 38.4427L31.2209 37.1755L32.6246 36.0295L34.4494 34.4161L36.1862 32.7147L37.835 30.9272L39.4324 29.087L40.9231 27.1959L42.3445 25.2344L43.678 23.2035L44.9413 21.1383L45.5206 20.2534L46.1167 21.1383L47.38 23.2035L48.7134 25.2344L50.1527 27.1959L51.6443 29.1046L53.223 30.9448L54.8896 32.7147L56.6273 34.4161L58.4343 36.0295L59.8558 37.1755L61.1715 38.4427L62.3824 39.8136L63.452 41.2892L64.3999 42.8332L65.2066 44.4651L65.8738 46.1489L66.3828 47.8845L66.7506 49.6544L66.9443 51.4594L66.9967 53.282L66.891 55.0695Z" fill="white"/>
<path d="M64.7855 52.9693L64.3476 52.8304L64.0313 52.6222L63.8207 52.3445L63.698 52.0325L63.6278 51.6502L63.6102 51.2864L62.926 50.1405L62.329 48.9777L61.8209 47.7623L61.4166 46.496L61.1012 45.2288L60.9955 44.6734L60.9609 44.031L61.0134 43.3719L61.1893 42.7119L61.4523 42.1047L61.6451 41.7918L61.2062 41.1845L60.0833 39.8479L59.3992 39.1536L59.592 39.9173L59.7679 40.5949L60.0131 41.2891L60.2938 41.8964L60.5577 42.4342L60.452 42.7119L60.2591 42.9202L59.9607 43.0248L59.5752 42.972L59.2589 42.7295L58.9435 42.3648L58.645 41.8788L58.5393 41.4104V41.1845L58.557 41.0633L58.6094 40.942H57.5567L57.4519 40.2996L57.4342 39.9349V39.6054L57.4698 39.1888L57.4342 38.9287L57.2938 38.7371L57.1712 38.651L56.6443 38.3205L56.4871 38.1993L56.3467 38.0428L55.6449 37.0709L55.5569 36.932L55.3989 36.8802L55.2407 36.9496L55.1537 37.0885V37.3143L55.1004 38.2344L54.188 37.4013L53.153 36.6025L51.9776 35.8212L51.5388 35.5435L51.0475 35.3353L50.5384 35.1964L50.0303 35.1446L49.5559 35.0927L49.3809 34.9539L49.3285 34.7456L49.3631 34.5549L49.5559 34.3633L49.8544 34.242L50.2932 34.1726L50.6787 34.155L48.9419 34.0338L47.1171 33.9819L45.7311 34.0338L44.4856 34.155L43.2392 34.3466L42.046 34.6586L40.8885 35.127L40.3092 35.4574L39.6954 35.8212L39.0459 36.3072L38.7306 36.5507L38.4498 36.7765L37.8884 37.3838L37.4317 37.8697L36.976 38.2344L36.4314 38.5464L35.8699 38.7547L35.4142 38.8065L35.0277 38.651L34.7647 38.3381L34.4138 38.0428L33.8879 37.9392L33.3087 38.0262L32.7294 38.3039L32.2204 38.6158L30.9926 39.8479L29.8697 41.1845L28.8516 42.6082L27.9925 44.118L27.2551 45.6972L26.6759 47.3291L26.2548 49.012L25.974 50.7309L25.8514 52.449L25.887 54.2022L26.0798 55.9202L26.4307 57.6207L26.9398 59.2702L27.5882 60.8836L28.378 62.4462L29.3082 63.9041L30.361 65.2926L31.5363 66.5942L32.852 67.7568L34.2557 68.8334L35.7295 69.7701L37.2913 70.569L38.9234 71.2281L40.6078 71.7492L42.3446 72.1139L44.0991 72.3389L45.5384 72.3916L46.9767 72.3389L48.7313 72.1139L50.4681 71.7492L51.1175 70.2913L51.3805 69.4407L51.6266 68.2956L51.6612 67.8958L51.6443 67.445L51.5208 67.046L51.3103 66.7155L50.9771 66.4212L50.1705 65.6917L49.4855 64.9105L49.2048 64.4597L49.1177 64.0256V63.5221L49.2225 63.1231L49.6792 62.3252L49.8364 61.9253L49.9599 61.5439L50.0123 61.0061L49.9599 60.3285L49.8898 59.9814L49.696 59.7389L49.5557 59.687L49.3985 59.7389L48.4159 59.8602L47.9246 59.7732L47.4156 59.6344L46.9589 59.4261L46.5378 59.1317L45.4682 58.0904L45.2399 57.9163L44.9414 57.8469H44.6428L44.3621 57.9515L43.9943 58.1598L43.678 58.2635H43.3271L43.0118 58.1764L42.7479 58.0376L40.6779 56.1631L40.8707 54.8616L39.2565 52.8658L39.7656 54.6014L39.73 54.9661L38.9056 54.046L38.3797 53.2472L37.9586 52.3447L37.66 51.1478L37.4673 49.8111V48.3532L37.5543 47.1555L37.748 45.9233L37.5019 41.8096L36.8001 41.9485L36.0636 42.0355H35.4488L34.6599 41.9485L33.9048 41.7226L33.4837 41.5144L33.0981 41.2367L32.6948 40.8895L32.3785 40.4563L34.484 40.7507L34.6422 40.4211L34.8705 40.1259L35.2214 39.8657L35.6069 39.6751L35.9232 39.5705L35.9756 39.3455L36.116 39.0845L36.4314 38.929L37.1865 38.8068L37.3438 38.5985L37.5543 38.443L37.835 38.3384H38.2037L38.5369 38.443L38.8878 38.7031L39.3622 39.2409L40.327 40.2999L40.7659 40.6988L41.3442 40.9941L42.0114 41.0636L42.4671 41.046L42.7834 40.9423L43.9588 40.3175L44.4154 40.161L44.7664 40.1259L45.0995 40.2305L45.3278 40.5257L45.4326 40.8895L45.4504 41.4107L45.3278 42.0355L45.0995 42.6252L44.8188 43.25L44.7308 43.5971L44.7486 44.0831L44.9067 44.5172L45.2043 44.8819L45.6254 45.1078L46.1167 45.1939L46.5734 45.1078L46.8364 44.9338L46.6081 43.0769L46.6614 42.6946L46.8186 42.4002L47.0292 42.2262L47.3277 42.1392H47.7142L48.0997 42.2614L51.8194 44.2395L50.4682 45.7493L50.3811 45.9576L50.398 46.1658L50.5917 46.288L51.5209 46.3047L51.7146 46.3917L51.7492 46.5824L51.6967 46.774L50.8723 47.3461L50.2575 47.9542L49.872 48.6485L49.6792 49.4121L49.4153 50.4359L48.9942 51.4255L48.4327 52.3447L48.0996 52.7094L48.3803 53.2823L48.5731 53.9071L48.4505 54.0108L48.2577 54.0635L48.0471 54.0459L47.8891 53.9247L47.5737 53.4905L47.0824 53.1259L46.5556 52.9695L45.9595 52.8834L45.3802 52.9695L44.8534 53.1435L44.3977 53.5082L44.0645 53.9766L43.854 54.5145L43.8362 55.0699L44.0467 56.3714L45.3447 55.5383L45.8537 55.3134L46.1522 55.2439L46.4152 55.3134L46.608 55.4689L46.6613 55.6947L46.608 55.9382L46.2748 56.563L46.2571 56.7019L46.3104 56.8231L46.4152 56.8925L46.5556 56.9101L47.293 56.6324H47.468L47.6439 56.7185L47.7487 56.8925V57.7256L47.8366 58.2292L48.0471 58.5412L48.3803 58.7318L48.8191 58.593L49.1878 58.5763L49.4686 58.7318L49.9243 59.0623L50.5382 58.5587L51.1352 58.0904L51.837 57.7599L52.5566 57.6044L53.3287 57.5692L55.0832 57.7432L56.4691 58.0376L57.8204 58.4893L59.1005 59.079L59.2765 58.9753L59.6976 58.8189L60.1533 58.7847L60.6277 58.906L60.9787 59.2179L61.1714 59.6872L61.2594 60.1899V60.8499L61.1359 61.6311L60.9085 62.5855L60.434 63.8176L59.8903 64.8414L59.0658 66.1087L58.1358 67.237L57.1709 68.2783L55.9955 69.3022L55.3283 69.7882L56.8377 68.8337L58.2236 67.7572L59.5215 66.5945L60.6978 65.293L61.7674 63.9045L62.6976 62.4465L63.4873 60.884L64.1367 59.2706L64.6449 57.621L64.9958 55.9206L65.1895 54.2026V54.0637L65.2241 52.9872L64.7855 52.9693ZM50.5738 55.9722L50.4859 56.0768L50.3109 56.0934L50.1172 56.024L49.8721 55.8509L49.5913 55.6945L49.2582 55.5557L48.9943 55.4687L48.6434 55.452L48.3804 55.5214L48.0651 55.5557H47.7666L47.4681 55.4863L47.3278 55.3826L47.223 55.2262L47.1874 55.0698L47.2398 54.9134L47.3802 54.7921L47.6263 54.7227L47.8715 54.7051L48.2579 54.6884H48.521L49.0123 54.7579L49.3454 54.8791L49.6439 55.018L49.9247 55.1911L50.1876 55.3994L50.4861 55.6946L50.574 55.8335L50.5738 55.9722ZM48.749 41.6364L48.6265 41.8446L48.4327 41.9835L48.2924 42.0353L47.9415 42.0872H47.7141L47.3978 42.0177L47.0824 41.9141L46.8185 41.7058L46.7661 41.6012L46.7315 41.3929L46.8017 41.1846L46.942 41.0282L47.0646 40.8893L47.1171 40.7338L47.0646 40.5598L46.9243 40.4385L46.8185 40.3867L46.2748 40.2303L45.6956 40.1784L45.5206 40.1608L45.1173 39.4314L45.0817 39.2583V38.876L45.2399 38.9112L46.0297 39.1889L46.7661 39.5536L47.468 40.0044L48.0996 40.5256L48.6788 41.1504L48.7667 41.4105L48.749 41.6364ZM51.8016 41.4281L51.7145 41.4975L51.2401 41.5318L50.8021 41.4975L50.3979 41.3587L50.0301 41.1504L49.7316 40.8551L49.2048 40.3339L48.0996 39.1195L46.5378 38.1299L46.2402 37.9568L45.9417 37.8698L45.2745 37.7486L45.0995 37.5403L46.1167 37.6615L46.8887 36.4461L47.8713 36.6544L48.6966 36.846L49.4855 37.1404L50.3455 37.5745L50.3632 37.8346L50.7666 38.4428L51.1699 39.1371L51.4684 39.8656L51.679 40.595L51.8193 41.3411L51.8016 41.4281ZM52.4332 45.177L52.3462 45.3159L52.2227 45.4196L52.0121 45.489L51.6443 45.6102L51.7145 45.3159L51.8016 45.1076L51.8895 44.9688L52.0121 44.8817L52.188 44.8299L52.363 44.8642L52.451 45.003L52.4332 45.177Z" fill="white"/>
<path d="M32.2207 38.616L33.5893 37.5052L35.028 36.4985L36.5545 35.6307L38.1687 34.9191L39.818 34.329L41.5375 33.8778L42.9939 33.6521L44.2221 33.5132L44.9239 33.4785L46.0293 33.4959L46.9592 33.5479L48.012 33.6695L49.5384 33.8951L50.679 34.1555L48.9419 34.0339L47.1171 33.9819L45.731 34.0339L44.4852 34.1555L43.2395 34.3463L42.0464 34.6587L40.8884 35.1274L40.3093 35.4571L39.6952 35.8217L39.046 36.3076L38.7302 36.5506L38.4494 36.7762L37.888 37.3837L37.4318 37.8697L36.9756 38.2341L36.4317 38.5465L35.8702 38.7548L35.4141 38.8069L35.028 38.6507L34.7648 38.3383L34.4139 38.0433L33.8875 37.9391L33.3085 38.0259L32.7295 38.3036L32.2207 38.616Z" fill="#188ABD"/>
<path d="M59.3992 39.1539L58.8553 38.6158L57.4868 37.505L56.048 36.4983L54.5215 35.6305L52.8897 34.9189L51.2404 34.3288L50.679 34.1553L50.2929 34.1726L49.8543 34.242L49.556 34.3635L49.363 34.5544L49.3279 34.7454L49.3806 34.9537L49.556 35.0925L50.0297 35.1445L50.5386 35.1966L51.0474 35.3355L51.5387 35.5438L51.9774 35.8215L53.1529 36.6025L54.1881 37.4008L55.1005 38.2339L55.1531 37.3141V37.0884L55.2409 36.9496L55.3988 36.8802L55.5567 36.9323L55.6444 37.0711L56.3462 38.0431L56.4866 38.1992L56.6446 38.3208L57.1709 38.6505L57.2937 38.7373L57.4341 38.9282L57.4692 39.1886L57.4341 39.6051V39.9349L57.4517 40.2994L57.5569 40.9415H58.6097L58.557 41.0631L58.5395 41.1845V41.4102L58.6448 41.8788L58.943 42.3647L59.2588 42.7293L59.5747 42.9722L59.9607 43.0243L60.259 42.9201L60.452 42.7119L60.5572 42.4342L60.2941 41.8962L60.0134 41.2886L59.7677 40.5944L59.5923 39.9175L59.3992 39.1539Z" fill="#5B7B36"/>
<path d="M65.2244 52.4487L65.1016 50.7304L64.8209 49.0122L64.3998 47.3286L63.8207 45.6971L63.0838 44.1177L62.2241 42.6077L61.6451 41.792L61.4521 42.1044L61.1889 42.7118L61.0134 43.3714L60.9608 44.0309L60.9959 44.6731L61.1012 45.2285L61.417 46.4955L61.8205 47.7625L62.3294 48.9775L62.926 50.1403L63.6102 51.2858L63.6278 51.6503L63.698 52.0322L63.8207 52.3446L64.0313 52.6223L64.3471 52.8306L64.7858 52.9694L65.2244 52.9867V52.4487Z" fill="#8B7936"/>
<path d="M48.5209 54.688L49.0121 54.7574L49.3456 54.879L49.6438 55.0178L49.9245 55.1914L50.1878 55.3996L50.486 55.6946L50.5738 55.8335V55.9723L50.486 56.0765L50.3105 56.0939L50.1176 56.0245L49.8719 55.8509L49.5912 55.6946L49.2578 55.5558L48.9946 55.4691L48.6437 55.4517L48.3805 55.5211L48.0647 55.5558H47.7664L47.4681 55.4864L47.3277 55.3822L47.2225 55.2261L47.1874 55.0698L47.2401 54.9137L47.3804 54.7921L47.6261 54.7227L47.8717 54.7054L48.2577 54.688H48.5209Z" fill="#A8BB38"/>
<path d="M49.4682 58.7317L49.1875 58.5754L48.819 58.5928L48.3803 58.7317L48.0469 58.5407L47.8363 58.2283L47.7485 57.7249V57.0827V56.8917L47.6433 56.7182L47.4678 56.6313H47.2924L46.5554 56.909L46.4151 56.8916L46.3098 56.8222L46.2571 56.7007L46.2747 56.5618L46.6081 55.937L46.6608 55.694L46.6081 55.4683L46.4151 55.3121L46.1518 55.2426L45.8535 55.3121L45.3446 55.5377L44.0462 56.3708L43.8357 55.0691L43.8533 54.5137L44.0638 53.9756L44.3972 53.5069L44.8534 53.1424L45.3798 52.9688L45.9589 52.882L46.5554 52.9688L47.0818 53.1251L47.5731 53.4896L47.8889 53.9236L48.0469 54.0451L48.2574 54.0625L48.4505 54.0104L48.5733 53.9063L48.3803 53.2814L48.0996 52.7086L48.433 52.3441L48.9944 51.4242L49.4155 50.4348L49.6788 49.4108L49.8718 48.6471L50.2578 47.9528L50.872 47.3453L51.6967 46.7725L51.7143 46.3907L51.5212 46.3038L50.5913 46.2864L50.3982 46.1649L50.3806 45.9566L50.4684 45.7484L51.8195 44.2383L48.0997 42.2597L47.7137 42.1382H47.3277L47.0294 42.225L46.8189 42.3986L46.6609 42.6937L46.6082 43.0755L46.8364 44.9327L46.5731 45.1062L46.1169 45.193L45.6256 45.1062L45.2045 44.8805L44.9062 44.516L44.7483 44.0821L44.7307 43.5961L44.8184 43.249L45.0992 42.6241L45.3273 42.034L45.4502 41.4092L45.4326 40.8885L45.3273 40.524L45.0992 40.2289L44.7657 40.1247L44.4148 40.1595L43.9586 40.3157L42.783 40.9405L42.4672 41.0447L42.011 41.0621L41.3443 40.9927L40.7652 40.6975L40.3265 40.2983L39.3614 39.2395L38.8877 38.7014L38.5367 38.4411L38.2033 38.3369H37.8348L37.5541 38.4411L37.3435 38.5973L37.1856 38.8056L36.431 38.9271L36.1152 39.0834L35.9749 39.3438L35.9222 39.5694L35.6063 39.6736L35.2203 39.8645L34.8694 40.1249L34.6413 40.42L34.4833 40.7498L32.3778 40.4547L32.6936 40.8887L33.0972 41.2358L33.4832 41.5135L33.9043 41.7218L34.6589 41.9475L35.4485 42.0343H36.0626L36.7996 41.9475L37.5014 41.8086L37.747 45.9221L37.554 47.1544L37.4662 48.3521V49.81L37.6593 51.1465L37.9576 52.3441L38.3787 53.2466L38.9051 54.045L39.7298 54.9649L39.7649 54.6004L39.256 52.8648L40.8702 54.8608L40.6771 56.1626L42.7476 58.037L43.0108 58.1759L43.3266 58.2627H43.6775L43.9934 58.1586L44.3619 57.9503L44.6426 57.8462H44.9409L45.2393 57.9156L45.4674 58.0892L46.5377 59.1305L46.9588 59.4256L47.415 59.6339L47.9239 59.7728L48.4152 59.8596L49.3978 59.7381L49.5557 59.6859L49.6522 59.7218C49.7442 59.5011 49.8201 59.2724 49.9099 59.0508L49.4682 58.7317Z" fill="#5B7B36"/>
<path d="M61.1714 59.6864L60.9784 59.2177L60.6274 58.9053L60.1536 58.7838L59.6975 58.8185L59.2764 58.9747L59.1009 59.0789L57.82 58.4888L56.4689 58.0375L55.0828 57.7424L53.3282 57.5688L52.5561 57.6036L51.8367 57.7598L51.1349 58.0896L50.5383 58.5583L49.9242 59.0617L49.91 59.0514C49.8201 59.2731 49.7442 59.5016 49.6522 59.7223L49.6961 59.7386L49.8892 59.9816L49.9594 60.3287L50.012 61.0057L49.9594 61.5437L49.8365 61.9256L49.6785 62.3248L49.2223 63.1232L49.1171 63.5224V64.0258L49.2048 64.4598L49.4856 64.911L50.1699 65.6921L50.977 66.4211L51.3104 66.7162L51.521 67.046L51.6439 67.4452L51.6614 67.8965L51.6264 68.2957L51.3807 69.4412L51.1175 70.2917L50.4331 71.7844L52.1526 71.229L53.7845 70.5694L55.3285 69.7884L55.9952 69.3024L57.1709 68.2783L58.1359 67.2369L59.0659 66.1087L59.8906 64.8417L60.4346 63.8176L60.9084 62.5853L61.1365 61.6307L61.2594 60.8496V60.1901L61.1714 59.6864Z" fill="#3E8A41"/>
<path d="M44.8888 46.8604L44.7308 46.9818L44.6606 47.1728L44.6782 47.3984L44.7659 47.5546L44.9765 47.7455L45.2572 47.8844L45.4678 47.9365L45.6608 47.9712L45.6257 48.7522V48.8216L45.6608 49.0126L45.8187 49.1687L46.0117 49.2208L46.2223 49.1861L46.3276 49.0993L46.4152 48.7175V48.3183L46.3451 47.9191L46.1345 47.5372L45.8714 47.2248L45.5379 46.9818L45.1344 46.8257H44.9941L44.8888 46.8604Z" fill="#243B97"/>
<path d="M50.0297 41.1498L50.3982 41.3581L50.8017 41.4969L51.2404 41.5316L51.7141 41.4969L51.8019 41.4275L51.8194 41.3407L51.679 40.5944L51.4685 39.8654L51.1702 39.1365L50.7666 38.4422L50.3631 37.8348L50.3455 37.5744L49.4858 37.1405L48.6962 36.8454L47.8716 36.6546L46.889 36.4463L46.117 37.6612L45.0994 37.5397L45.2748 37.748L45.9416 37.8695L46.2398 37.9562L46.5381 38.1298L48.0997 39.1191L49.2051 40.3341L49.7315 40.8548L50.0297 41.1498Z" fill="#188ABD"/>
<path d="M48.4331 41.9832L48.6261 41.8443L48.7489 41.6361L48.7664 41.4105L48.6787 41.1501L48.0997 40.5253L47.468 40.0046L46.7662 39.5533L46.0293 39.1889L45.2397 38.9112L45.0818 38.8765V39.2583L45.1169 39.4319L45.5205 40.1608L45.6959 40.1781L46.2749 40.2303L46.8189 40.3864L46.9241 40.4385L47.0645 40.56L47.1171 40.7335L47.0645 40.8898L46.9416 41.0286L46.8013 41.1848L46.7311 41.3931L46.7662 41.6014L46.8189 41.7055L47.082 41.9138L47.3978 42.0179L47.7137 42.0873H47.9418L48.2927 42.0353L48.4331 41.9832Z" fill="#26B572"/>
<path d="M51.8896 44.9684L51.8019 45.1073L51.7141 45.3156L51.6439 45.6107L52.0124 45.4891L52.223 45.4197L52.3458 45.3156L52.4335 45.1767L52.451 45.0032L52.3633 44.8643L52.1879 44.8296L52.0124 44.8817L51.8896 44.9684Z" fill="#71C38A"/>
</svg>
