<svg width="90" height="90" viewBox="0 0 90 90" fill="none" xmlns="http://www.w3.org/2000/svg">
<rect width="90" height="90" rx="8" fill="#EE9B00"/>
<path d="M69 49.71C68.6638 47.406 67.6153 45.2648 66.0015 43.5863C64.3876 41.9079 62.2891 40.7763 60 40.35C59.6676 38.1513 58.7564 36.0806 57.36 34.35C56.0681 32.764 54.3922 31.5346 52.4915 30.7785C50.5908 30.0224 48.5283 29.7648 46.5 30.03C43.6306 30.5223 40.9986 31.9331 39 34.05C36.5314 33.6326 33.9955 34.1349 31.8724 35.4618C29.7493 36.7887 28.1865 38.8481 27.48 41.25C25.5756 41.8049 23.9079 42.9734 22.736 44.5738C21.5642 46.1742 20.9539 48.117 21 50.1C20.8373 51.374 20.9491 52.668 21.328 53.8951C21.7068 55.1223 22.3439 56.2541 23.1964 57.2146C24.0489 58.1752 25.0972 58.9421 26.2707 59.4639C27.4442 59.9858 28.7158 60.2504 30 60.24H59.46C62.2321 60.0209 64.8169 58.7552 66.69 56.7C67.5609 55.7735 68.2189 54.6678 68.6179 53.4604C69.0169 52.253 69.1473 50.9731 69 49.71ZM65.28 55.29C63.8226 56.9525 61.8043 58.0204 59.61 58.29H30C29.7 58.29 23.19 58.29 23.19 50.25C23.1373 48.3505 23.8134 46.5027 25.0797 45.0858C26.346 43.6689 28.1065 42.7902 30 42.63H30.51C30.767 42.5348 30.9781 42.3454 31.1006 42.1003C31.2232 41.8552 31.248 41.5727 31.17 41.31C31.1123 41.0528 30.9599 40.8267 30.7432 40.6766C30.5264 40.5265 30.2611 40.4635 30 40.5C30.6707 39.0365 31.7827 37.8196 33.18 37.02C34.416 36.3908 35.7779 36.0479 37.1645 36.0167C38.5511 35.9855 39.927 36.2669 41.19 36.84C41.3177 36.8928 41.4548 36.919 41.5929 36.9172C41.731 36.9153 41.8674 36.8854 41.9936 36.8293C42.1198 36.7732 42.2334 36.6921 42.3273 36.5908C42.4212 36.4895 42.4936 36.3701 42.54 36.24C42.6508 35.9854 42.6562 35.6972 42.555 35.4385C42.4538 35.1799 42.2542 34.9719 42 34.86L41.37 34.65C42.882 33.2855 44.7394 32.3619 46.74 31.98C48.4213 31.7367 50.137 31.9383 51.7162 32.5647C53.2953 33.1911 54.6827 34.2204 55.74 35.55C57.4752 37.8138 58.3473 40.6216 58.2 43.47C58.2 43.7485 58.3106 44.0156 58.5076 44.2125C58.7045 44.4094 58.9715 44.52 59.25 44.52C59.4741 44.4535 59.6695 44.314 59.8053 44.1238C59.9412 43.9336 60.0097 43.7036 60 43.47C60 43.14 60 42.87 60 42.54C61.7484 42.9582 63.3314 43.8904 64.5452 45.2164C65.7589 46.5425 66.5477 48.2016 66.81 49.98C66.9319 50.934 66.8447 51.9031 66.5546 52.82C66.2645 53.7369 65.7784 54.5798 65.13 55.29H65.28Z" fill="white"/>
<path d="M51.39 39.2401C51.4197 39.1525 51.4197 39.0576 51.39 38.9701C51.3647 38.834 51.3129 38.7042 51.2373 38.5882C51.1617 38.4722 51.064 38.3723 50.9497 38.2942C50.8354 38.2162 50.7067 38.1615 50.5712 38.1333C50.4357 38.1051 50.2959 38.104 50.16 38.1301C48.6537 38.4576 47.1317 38.7079 45.6 38.8801C45.3557 38.9218 45.134 39.0486 44.9743 39.238C44.8145 39.4274 44.7268 39.6673 44.7268 39.9151C44.7268 40.1629 44.8145 40.4027 44.9743 40.5921C45.134 40.7816 45.3557 40.9083 45.6 40.9501L47.76 40.6501L45 44.5201C44.862 44.6696 44.7719 44.8569 44.7412 45.0579C44.7105 45.259 44.7406 45.4647 44.8277 45.6485C44.9148 45.8323 45.0548 45.9859 45.2299 46.0896C45.4049 46.1932 45.6069 46.2421 45.81 46.2301C45.9628 46.2308 46.114 46.1991 46.2536 46.137C46.3932 46.075 46.5181 45.984 46.62 45.8701L49.62 42.0601L49.8 43.5901C49.7987 43.7389 49.8291 43.8863 49.8891 44.0226C49.9491 44.1588 50.0374 44.2807 50.1482 44.3802C50.2589 44.4796 50.3895 44.5545 50.5313 44.5996C50.6732 44.6448 50.823 44.6593 50.9708 44.6421C51.1187 44.625 51.2612 44.5766 51.389 44.5002C51.5167 44.4238 51.6268 44.3211 51.7118 44.1989C51.7968 44.0767 51.8549 43.9378 51.8821 43.7915C51.9094 43.6451 51.9053 43.4947 51.87 43.3501C51.63 41.1301 51.39 39.3901 51.39 39.3901V39.2401Z" fill="white"/>
<path d="M43.7702 51.7798L41.6702 52.2898L44.3402 48.5098C44.4254 48.3992 44.487 48.2723 44.5212 48.1369C44.5554 48.0015 44.5615 47.8606 44.539 47.7228C44.5165 47.585 44.4659 47.4532 44.3904 47.3358C44.315 47.2183 44.2162 47.1176 44.1002 47.0398C43.988 46.9586 43.861 46.9004 43.7263 46.8686C43.5915 46.8367 43.4519 46.8317 43.3152 46.8541C43.1786 46.8764 43.0478 46.9255 42.9302 46.9985C42.8126 47.0716 42.7107 47.1672 42.6302 47.2798L39.9302 51.2398C39.9302 50.7898 39.7202 50.2798 39.6002 49.7398C39.5718 49.6072 39.5173 49.4816 39.4398 49.3702C39.3624 49.2589 39.2635 49.1642 39.1489 49.0916C39.0344 49.0189 38.9065 48.9699 38.7728 48.9473C38.6391 48.9246 38.5022 48.9289 38.3702 48.9598C38.1008 49.0176 37.8649 49.1789 37.7134 49.409C37.5618 49.6391 37.5068 49.9195 37.5602 50.1898C38.0402 52.3198 38.2802 53.9698 38.2802 54.0298C38.2501 54.1682 38.2501 54.3114 38.2802 54.4498C38.3496 54.6663 38.4856 54.8553 38.6687 54.99C38.8519 55.1246 39.0728 55.1981 39.3002 55.1998H39.6002C39.6002 55.1998 42.0002 54.2398 44.2202 53.8198C44.467 53.7382 44.6747 53.568 44.8032 53.3421C44.9317 53.1161 44.9719 52.8505 44.9159 52.5967C44.8599 52.3429 44.7118 52.1188 44.5001 51.9679C44.2885 51.817 44.0284 51.75 43.7702 51.7798Z" fill="white"/>
</svg>
