<svg width="90" height="91" viewBox="0 0 90 91" fill="none" xmlns="http://www.w3.org/2000/svg">
<rect y="0.5" width="90" height="90" rx="8" fill="#1B4D8B"/>
<path d="M62.0771 38.98C62.0761 43.447 60.3266 47.7307 57.2135 50.8889C54.1003 54.047 49.8785 55.8209 45.4766 55.8204C41.0747 55.8199 36.8533 54.045 33.7408 50.8861C30.6284 47.7273 28.8799 43.4432 28.8799 38.9761C28.8799 34.5091 30.6284 30.225 33.7408 27.0661C36.8533 23.9072 41.0747 22.1323 45.4766 22.1318C49.8785 22.1313 54.1003 23.9052 57.2135 27.0634C60.3266 30.2215 62.0761 34.5052 62.0771 38.9723" fill="white"/>
<path d="M50.3377 54.4422C53.5393 52.9723 60.5983 48.2445 60.6331 38.5762C60.667 28.8527 52.7801 21.5392 44.7338 21.7669C36.8107 21.9937 28.3041 27.3075 28.2444 38.5394C28.1848 49.716 37.3993 55.1704 51.8268 58.9783C60.4557 61.3062 30.9894 61.045 34.468 62.1516C38.7579 63.5161 58.5832 64.7918 52.6117 66.3362C46.8682 67.8212 37.6673 67.0812 34.3698 68.8926C31.4128 70.5174 66.566 70.3525 48.6864 73.9628" stroke="white" stroke-linecap="round" stroke-linejoin="round"/>
<path d="M38.3145 35.4027C42.064 37.1966 45.0618 39.9472 50.8808 34.8335" stroke="#EE9B00" stroke-linecap="round"/>
<path d="M23.5234 21.6782L27.119 26.0737" stroke="white" stroke-linecap="round"/>
<path d="M35.191 12.4819C35.1668 12.4819 35.1427 12.4819 35.191 12.4819V12.4819Z" stroke="black" stroke-width="0.836729"/>
<path d="M33.8701 12.5635L35.6317 17.3649" stroke="white" stroke-linecap="round"/>
<path d="M51.1883 11.0171L50.1611 16.1442" stroke="white" stroke-linecap="round"/>
<path d="M67.4786 18.9927L63.2959 22.6549" stroke="white" stroke-linecap="round"/>
<path d="M40.5781 27.5585C40.578 28.2859 40.3145 28.9833 39.8456 29.4976C39.3768 30.0118 38.7409 30.3006 38.0779 30.3006C37.4149 30.3005 36.7791 30.0115 36.3103 29.4972C35.8415 28.9829 35.5781 28.2853 35.5781 27.558C35.5781 26.8307 35.8415 26.1331 36.3103 25.6188C36.7791 25.1045 37.4149 24.8155 38.0779 24.8154C38.7409 24.8154 39.3768 25.1042 39.8456 25.6184C40.3145 26.1327 40.578 26.8301 40.5781 27.5575" fill="#EE9B00"/>
</svg>
