<svg width="90" height="91" viewBox="0 0 90 91" fill="none" xmlns="http://www.w3.org/2000/svg">
<rect y="0.5" width="90" height="90" rx="8" fill="#1A4882"/>
<g clip-path="url(#clip0_157_420)">
<path d="M49.1667 62.3333H48C48 62.55 48.0603 62.7624 48.1742 62.9467C48.2881 63.131 48.4511 63.2799 48.6449 63.3768C48.8387 63.4737 49.0557 63.5147 49.2714 63.4953C49.4872 63.4758 49.6933 63.3967 49.8667 63.2667L49.1667 62.3333ZM53.8333 58.8333L54.5333 57.9C54.3314 57.7485 54.0858 57.6667 53.8333 57.6667C53.5809 57.6667 53.3353 57.7485 53.1333 57.9L53.8333 58.8333ZM58.5 62.3333L57.8 63.2667C57.9733 63.3967 58.1794 63.4758 58.3952 63.4953C58.611 63.5147 58.828 63.4737 59.0217 63.3768C59.2155 63.2799 59.3785 63.131 59.4924 62.9467C59.6063 62.7624 59.6667 62.55 59.6667 62.3333H58.5ZM53.8333 54.1667C52.2862 54.1667 50.8025 53.5521 49.7085 52.4581C48.6146 51.3642 48 49.8804 48 48.3333H45.6667C45.6667 50.4993 46.5271 52.5765 48.0586 54.108C49.5902 55.6396 51.6674 56.5 53.8333 56.5V54.1667ZM59.6667 48.3333C59.6667 49.8804 59.0521 51.3642 57.9581 52.4581C56.8642 53.5521 55.3804 54.1667 53.8333 54.1667V56.5C55.9993 56.5 58.0765 55.6396 59.608 54.108C61.1396 52.5765 62 50.4993 62 48.3333H59.6667ZM53.8333 42.5C55.3804 42.5 56.8642 43.1146 57.9581 44.2085C59.0521 45.3025 59.6667 46.7862 59.6667 48.3333H62C62 46.1674 61.1396 44.0902 59.608 42.5586C58.0765 41.0271 55.9993 40.1667 53.8333 40.1667V42.5ZM53.8333 40.1667C51.6674 40.1667 49.5902 41.0271 48.0586 42.5586C46.5271 44.0902 45.6667 46.1674 45.6667 48.3333H48C48 46.7862 48.6146 45.3025 49.7085 44.2085C50.8025 43.1146 52.2862 42.5 53.8333 42.5V40.1667ZM48 53V62.3333H50.3333V53H48ZM49.8667 63.2667L54.5333 59.7667L53.1333 57.9L48.4667 61.4L49.8667 63.2667ZM53.1333 59.7667L57.8 63.2667L59.2 61.4L54.5333 57.9L53.1333 59.7667ZM59.6667 62.3333V53H57.3333V62.3333H59.6667ZM62 40.1667V32H59.6667V40.1667H62ZM58.5 28.5H30.5V30.8333H58.5V28.5ZM27 32V60H29.3333V32H27ZM30.5 63.5H45.6667V61.1667H30.5V63.5ZM27 60C27 60.9283 27.3687 61.8185 28.0251 62.4749C28.6815 63.1313 29.5717 63.5 30.5 63.5V61.1667C30.1906 61.1667 29.8938 61.0438 29.675 60.825C29.4562 60.6062 29.3333 60.3094 29.3333 60H27ZM30.5 28.5C29.5717 28.5 28.6815 28.8687 28.0251 29.5251C27.3687 30.1815 27 31.0717 27 32H29.3333C29.3333 31.6906 29.4562 31.3938 29.675 31.175C29.8938 30.9562 30.1906 30.8333 30.5 30.8333V28.5ZM62 32C62 31.0717 61.6312 30.1815 60.9749 29.5251C60.3185 28.8687 59.4283 28.5 58.5 28.5V30.8333C58.8094 30.8333 59.1062 30.9562 59.325 31.175C59.5438 31.3938 59.6667 31.6906 59.6667 32H62ZM34 40.1667H45.6667V37.8333H34V40.1667ZM34 47.1667H41V44.8333H34V47.1667Z" fill="white"/>
</g>
<defs>
<clipPath id="clip0_157_420">
<rect width="35" height="35" fill="white" transform="translate(27 28.5)"/>
</clipPath>
</defs>
</svg>
