<svg width="90" height="90" viewBox="0 0 90 90" fill="none" xmlns="http://www.w3.org/2000/svg">
<rect width="90" height="90" rx="8" fill="#00C04D"/>
<g clip-path="url(#clip0_138_4)">
<path d="M49.1667 61.8333H48C48 62.05 48.0603 62.2624 48.1742 62.4467C48.2881 62.631 48.4511 62.7799 48.6449 62.8768C48.8387 62.9737 49.0557 63.0147 49.2714 62.9953C49.4872 62.9758 49.6933 62.8967 49.8667 62.7667L49.1667 61.8333ZM53.8333 58.3333L54.5333 57.4C54.3314 57.2485 54.0858 57.1667 53.8333 57.1667C53.5809 57.1667 53.3353 57.2485 53.1333 57.4L53.8333 58.3333ZM58.5 61.8333L57.8 62.7667C57.9733 62.8967 58.1794 62.9758 58.3952 62.9953C58.611 63.0147 58.828 62.9737 59.0217 62.8768C59.2155 62.7799 59.3785 62.631 59.4924 62.4467C59.6063 62.2624 59.6667 62.05 59.6667 61.8333H58.5ZM53.8333 53.6667C52.2862 53.6667 50.8025 53.0521 49.7085 51.9581C48.6146 50.8642 48 49.3804 48 47.8333H45.6667C45.6667 49.9993 46.5271 52.0765 48.0586 53.608C49.5902 55.1396 51.6674 56 53.8333 56V53.6667ZM59.6667 47.8333C59.6667 49.3804 59.0521 50.8642 57.9581 51.9581C56.8642 53.0521 55.3804 53.6667 53.8333 53.6667V56C55.9993 56 58.0765 55.1396 59.608 53.608C61.1396 52.0765 62 49.9993 62 47.8333H59.6667ZM53.8333 42C55.3804 42 56.8642 42.6146 57.9581 43.7085C59.0521 44.8025 59.6667 46.2862 59.6667 47.8333H62C62 45.6674 61.1396 43.5902 59.608 42.0586C58.0765 40.5271 55.9993 39.6667 53.8333 39.6667V42ZM53.8333 39.6667C51.6674 39.6667 49.5902 40.5271 48.0586 42.0586C46.5271 43.5902 45.6667 45.6674 45.6667 47.8333H48C48 46.2862 48.6146 44.8025 49.7085 43.7085C50.8025 42.6146 52.2862 42 53.8333 42V39.6667ZM48 52.5V61.8333H50.3333V52.5H48ZM49.8667 62.7667L54.5333 59.2667L53.1333 57.4L48.4667 60.9L49.8667 62.7667ZM53.1333 59.2667L57.8 62.7667L59.2 60.9L54.5333 57.4L53.1333 59.2667ZM59.6667 61.8333V52.5H57.3333V61.8333H59.6667ZM62 39.6667V31.5H59.6667V39.6667H62ZM58.5 28H30.5V30.3333H58.5V28ZM27 31.5V59.5H29.3333V31.5H27ZM30.5 63H45.6667V60.6667H30.5V63ZM27 59.5C27 60.4283 27.3687 61.3185 28.0251 61.9749C28.6815 62.6313 29.5717 63 30.5 63V60.6667C30.1906 60.6667 29.8938 60.5438 29.675 60.325C29.4562 60.1062 29.3333 59.8094 29.3333 59.5H27ZM30.5 28C29.5717 28 28.6815 28.3687 28.0251 29.0251C27.3687 29.6815 27 30.5717 27 31.5H29.3333C29.3333 31.1906 29.4562 30.8938 29.675 30.675C29.8938 30.4562 30.1906 30.3333 30.5 30.3333V28ZM62 31.5C62 30.5717 61.6312 29.6815 60.9749 29.0251C60.3185 28.3687 59.4283 28 58.5 28V30.3333C58.8094 30.3333 59.1062 30.4562 59.325 30.675C59.5438 30.8938 59.6667 31.1906 59.6667 31.5H62ZM34 39.6667H45.6667V37.3333H34V39.6667ZM34 46.6667H41V44.3333H34V46.6667Z" fill="white"/>
</g>
<defs>
<clipPath id="clip0_138_4">
<rect width="35" height="35" fill="white" transform="translate(27 28)"/>
</clipPath>
</defs>
</svg>
