<svg width="90" height="91" viewBox="0 0 90 91" fill="none" xmlns="http://www.w3.org/2000/svg">
<path d="M0 8.5C0 4.08172 3.58172 0.5 8 0.5H82C86.4183 0.5 90 4.08172 90 8.5V82.5C90 86.9183 86.4183 90.5 82 90.5H8C3.58172 90.5 0 86.9183 0 82.5V8.5Z" fill="#1F5599"/>
<path d="M70.3659 52.2196L70.2078 50.259L69.8569 48.3493L69.3833 46.4573L68.7517 44.618L67.962 42.8305L67.0318 41.1116L65.979 39.4454L64.7691 37.9014L63.4702 36.4434L62.0141 35.0892L60.2772 33.3711L58.4347 31.6531L56.5042 29.6564L54.8198 27.6959L53.1887 25.6826L51.6615 23.5998L50.2054 21.4476L48.8373 19.2427L47.5563 17.0044L46.3809 14.7134L45.5209 13.1333L44.6965 14.6958L43.5034 16.9868L42.2223 19.226L40.8533 21.43L39.3972 23.5822L37.8709 25.665L36.2389 27.6783L34.5545 29.6398L32.625 31.6355L30.7824 33.3536L29.0278 35.0892L27.5886 36.4434L26.2729 37.9014L25.0798 39.463L24.0092 41.1116L23.0968 42.8305L22.308 44.618L21.6586 46.4573L21.185 48.3669L20.851 50.2757L20.676 52.2196L20.6582 54.1635L20.7986 56.1074L21.0793 58.0346L21.536 59.9257L22.1498 61.7835L22.8863 63.6053L23.7818 65.3409L24.8168 66.9904L25.9744 68.5696L27.2555 70.0618L28.6591 71.4336L30.1854 72.7175L31.7828 73.8635L33.4672 74.8697L35.2386 75.7546L37.0811 76.5016L38.9583 77.0913L40.8888 77.543L42.854 77.855L44.8369 77.9596H46.2228L48.1879 77.8374L50.153 77.543L52.0826 77.0913L53.9776 76.484L55.8023 75.7379L57.5925 74.8696L59.2769 73.8457L60.8734 72.6997L62.3828 71.4334L63.8034 70.0449L65.0844 68.5694L66.2429 66.9902L67.2779 65.324L68.1726 63.5884L68.91 61.7834L69.5061 59.9255L69.9627 58.0344L70.2603 56.1072L70.4363 54.1466L70.3659 52.2196ZM66.8913 55.5695L66.6284 57.3746L66.2073 59.1277L65.628 60.8458L64.9262 62.512L64.0494 64.1088L63.0668 65.6362L61.9262 67.0765L60.6806 68.4132L59.3294 69.6286L57.8732 70.7394L56.3115 71.728L54.6973 72.5611L52.9951 73.2905L51.2405 73.8459L49.4335 74.2624L47.6264 74.5227L45.7661 74.6273H45.3104L43.4501 74.5227L41.6253 74.2624L39.8361 73.8459L38.0815 73.2905L36.3793 72.5611L34.7651 71.728L33.2033 70.7394L31.7472 69.6286L30.3959 68.4132L29.1326 67.0765L28.0097 65.6362L27.0271 64.1088L26.1503 62.512L25.4485 60.8458L24.8692 59.1277L24.4481 57.3746L24.1852 55.5695L24.0794 53.782L24.1328 51.9594L24.3255 50.1544L24.6942 48.3845L25.2023 46.6489L25.8696 44.9651L26.6762 43.3332L27.6241 41.7892L28.6947 40.3136L29.9046 38.9427L31.2213 37.6755L32.625 36.5295L34.4497 34.9161L36.1865 33.2147L37.8354 31.4272L39.4328 29.587L40.9234 27.6959L42.3449 25.7344L43.6784 23.7035L44.9417 21.6383L45.5209 20.7534L46.117 21.6383L47.3803 23.7035L48.7138 25.7344L50.153 27.6959L51.6447 29.6046L53.2233 31.4448L54.89 33.2147L56.6277 34.9161L58.4347 36.5295L59.8561 37.6755L61.1719 38.9427L62.3828 40.3136L63.4523 41.7892L64.4003 43.3332L65.2069 44.9651L65.8741 46.6489L66.3832 48.3845L66.751 50.1544L66.9447 51.9594L66.9971 53.782L66.8913 55.5695Z" fill="white"/>
<path d="M64.7856 53.4693L64.3477 53.3304L64.0314 53.1222L63.8208 52.8445L63.6982 52.5325L63.628 52.1502L63.6103 51.7864L62.9261 50.6405L62.3291 49.4777L61.821 48.2623L61.4167 46.996L61.1014 45.7288L60.9956 45.1734L60.961 44.531L61.0135 43.8719L61.1894 43.2119L61.4524 42.6047L61.6452 42.2918L61.2064 41.6845L60.0834 40.3479L59.3994 39.6536L59.5921 40.4173L59.7681 41.0949L60.0132 41.7891L60.294 42.3964L60.5579 42.9342L60.4521 43.2119L60.2593 43.4202L59.9608 43.5248L59.5753 43.472L59.259 43.2295L58.9436 42.8648L58.6451 42.3788L58.5394 41.9104V41.6845L58.5572 41.5633L58.6096 41.442H57.5568L57.452 40.7996L57.4343 40.4349V40.1054L57.4699 39.6888L57.4343 39.4287L57.294 39.2371L57.1713 39.151L56.6444 38.8205L56.4872 38.6993L56.3469 38.5428L55.645 37.5709L55.5571 37.432L55.399 37.3802L55.2409 37.4496L55.1538 37.5885V37.8143L55.1005 38.7344L54.1881 37.9013L53.1531 37.1025L51.9777 36.3212L51.5389 36.0435L51.0476 35.8353L50.5386 35.6964L50.0304 35.6446L49.556 35.5927L49.381 35.4539L49.3286 35.2456L49.3632 35.0549L49.556 34.8633L49.8545 34.742L50.2933 34.6726L50.6788 34.655L48.942 34.5338L47.1173 34.4819L45.7313 34.5338L44.4857 34.655L43.2393 34.8466L42.0462 35.1586L40.8886 35.627L40.3094 35.9574L39.6955 36.3212L39.0461 36.8072L38.7307 37.0507L38.45 37.2765L37.8885 37.8838L37.4318 38.3697L36.9761 38.7344L36.4315 39.0464L35.87 39.2547L35.4143 39.3065L35.0278 39.151L34.7649 38.8381L34.4139 38.5428L33.888 38.4392L33.3088 38.5262L32.7295 38.8039L32.2205 39.1158L30.9927 40.3479L29.8698 41.6845L28.8517 43.1082L27.9926 44.618L27.2552 46.1972L26.676 47.8291L26.2549 49.512L25.9741 51.2309L25.8516 52.949L25.8871 54.7022L26.0799 56.4202L26.4308 58.1207L26.9399 59.7702L27.5884 61.3836L28.3782 62.9462L29.3083 64.4041L30.3611 65.7926L31.5364 67.0942L32.8521 68.2568L34.2558 69.3334L35.7297 70.2701L37.2915 71.069L38.9235 71.7281L40.6079 72.2492L42.3447 72.6139L44.0993 72.8389L45.5385 72.8916L46.9768 72.8389L48.7314 72.6139L50.4682 72.2492L51.1176 70.7913L51.3806 69.9407L51.6267 68.7956L51.6613 68.3958L51.6445 67.945L51.5209 67.546L51.3104 67.2155L50.9773 66.9212L50.1706 66.1917L49.4856 65.4105L49.2049 64.9597L49.1179 64.5256V64.0221L49.2227 63.6231L49.6793 62.8252L49.8365 62.4253L49.9601 62.0439L50.0125 61.5061L49.9601 60.8285L49.8899 60.4814L49.6962 60.2389L49.5558 60.187L49.3986 60.2389L48.416 60.3602L47.9247 60.2732L47.4157 60.1344L46.959 59.9261L46.5379 59.6317L45.4683 58.5904L45.24 58.4163L44.9415 58.3469H44.643L44.3622 58.4515L43.9945 58.6598L43.6782 58.7635H43.3273L43.0119 58.6764L42.748 58.5376L40.6781 56.6631L40.8708 55.3616L39.2566 53.3658L39.7657 55.1014L39.7301 55.4661L38.9057 54.546L38.3798 53.7472L37.9587 52.8447L37.6602 51.6478L37.4674 50.3111V48.8532L37.5544 47.6555L37.7481 46.4233L37.502 42.3096L36.8002 42.4485L36.0637 42.5355H35.4489L34.6601 42.4485L33.9049 42.2226L33.4838 42.0144L33.0982 41.7367L32.6949 41.3895L32.3786 40.9563L34.4841 41.2507L34.6423 40.9211L34.8706 40.6259L35.2215 40.3657L35.6071 40.1751L35.9234 40.0705L35.9758 39.8455L36.1161 39.5845L36.4315 39.429L37.1867 39.3068L37.3439 39.0985L37.5544 38.943L37.8352 38.8384H38.2039L38.537 38.943L38.8879 39.2031L39.3624 39.7409L40.3271 40.7999L40.766 41.1988L41.3443 41.4941L42.0115 41.5636L42.4673 41.546L42.7836 41.4423L43.9589 40.8175L44.4156 40.661L44.7665 40.6259L45.0996 40.7305L45.3279 41.0257L45.4328 41.3895L45.4505 41.9107L45.3279 42.5355L45.0996 43.1252L44.8189 43.75L44.7309 44.0971L44.7487 44.5831L44.9068 45.0172L45.2044 45.3819L45.6255 45.6078L46.1168 45.6939L46.5735 45.6078L46.8365 45.4338L46.6082 43.5769L46.6615 43.1946L46.8187 42.9002L47.0293 42.7262L47.3278 42.6392H47.7143L48.0998 42.7614L51.8195 44.7395L50.4683 46.2493L50.3813 46.4576L50.3981 46.6658L50.5918 46.788L51.521 46.8047L51.7147 46.8917L51.7494 47.0824L51.6969 47.274L50.8724 47.8461L50.2576 48.4542L49.8721 49.1485L49.6793 49.9121L49.4154 50.9359L48.9943 51.9255L48.4329 52.8447L48.0997 53.2094L48.3805 53.7823L48.5732 54.4071L48.4506 54.5108L48.2578 54.5635L48.0472 54.5459L47.8892 54.4247L47.5738 53.9905L47.0825 53.6259L46.5557 53.4695L45.9596 53.3834L45.3804 53.4695L44.8535 53.6435L44.3978 54.0082L44.0646 54.4766L43.8541 55.0145L43.8363 55.5699L44.0469 56.8714L45.3448 56.0383L45.8539 55.8134L46.1523 55.7439L46.4153 55.8134L46.6081 55.9689L46.6614 56.1947L46.6081 56.4382L46.275 57.063L46.2572 57.2019L46.3105 57.3231L46.4153 57.3925L46.5557 57.4101L47.2931 57.1324H47.4681L47.644 57.2185L47.7488 57.3925V58.2256L47.8367 58.7292L48.0472 59.0412L48.3805 59.2318L48.8193 59.093L49.1879 59.0763L49.4687 59.2318L49.9244 59.5623L50.5383 59.0587L51.1353 58.5904L51.8371 58.2599L52.5568 58.1044L53.3288 58.0692L55.0834 58.2432L56.4692 58.5376L57.8205 58.9893L59.1007 59.579L59.2766 59.4753L59.6977 59.3189L60.1534 59.2847L60.6279 59.406L60.9788 59.7179L61.1715 60.1872L61.2595 60.6899V61.3499L61.136 62.1311L60.9086 63.0855L60.4342 64.3176L59.8905 65.3414L59.0659 66.6087L58.1359 67.737L57.171 68.7783L55.9957 69.8022L55.3284 70.2882L56.8379 69.3337L58.2237 68.2572L59.5217 67.0945L60.6979 65.793L61.7675 64.4045L62.6977 62.9465L63.4874 61.384L64.1368 59.7706L64.645 58.121L64.9959 56.4206L65.1896 54.7026V54.5637L65.2242 53.4872L64.7856 53.4693ZM50.5739 56.4722L50.4861 56.5768L50.3111 56.5934L50.1174 56.524L49.8722 56.3509L49.5915 56.1945L49.2583 56.0557L48.9944 55.9687L48.6435 55.952L48.3806 56.0214L48.0652 56.0557H47.7667L47.4683 55.9863L47.3279 55.8826L47.2231 55.7262L47.1875 55.5698L47.2399 55.4134L47.3803 55.2921L47.6264 55.2227L47.8716 55.2051L48.2581 55.1884H48.5211L49.0124 55.2579L49.3455 55.3791L49.644 55.518L49.9248 55.6911L50.1877 55.8994L50.4862 56.1946L50.5741 56.3335L50.5739 56.4722ZM48.7492 42.1364L48.6266 42.3446L48.4329 42.4835L48.2925 42.5353L47.9416 42.5872H47.7142L47.3979 42.5177L47.0825 42.4141L46.8186 42.2058L46.7662 42.1012L46.7316 41.8929L46.8018 41.6846L46.9422 41.5282L47.0648 41.3893L47.1173 41.2338L47.0648 41.0598L46.9244 40.9385L46.8186 40.8867L46.275 40.7303L45.6957 40.6784L45.5207 40.6608L45.1174 39.9314L45.0818 39.7583V39.376L45.24 39.4112L46.0298 39.6889L46.7662 40.0536L47.4681 40.5044L48.0997 41.0256L48.6789 41.6504L48.7668 41.9105L48.7492 42.1364ZM51.8017 41.9281L51.7146 41.9975L51.2402 42.0318L50.8023 41.9975L50.398 41.8587L50.0302 41.6504L49.7317 41.3551L49.2049 40.8339L48.0997 39.6195L46.5379 38.6299L46.2403 38.4568L45.9418 38.3698L45.2746 38.2486L45.0996 38.0403L46.1168 38.1615L46.8888 36.9461L47.8714 37.1544L48.6968 37.346L49.4856 37.6404L50.3456 38.0745L50.3633 38.3346L50.7667 38.9428L51.17 39.6371L51.4685 40.3656L51.6791 41.095L51.8195 41.8411L51.8017 41.9281ZM52.4333 45.677L52.3463 45.8159L52.2228 45.9196L52.0122 45.989L51.6445 46.1102L51.7146 45.8159L51.8017 45.6076L51.8896 45.4688L52.0122 45.3817L52.1882 45.3299L52.3631 45.3642L52.4511 45.503L52.4333 45.677Z" fill="white"/>
<path d="M32.2207 39.116L33.5893 38.0052L35.028 36.9985L36.5545 36.1307L38.1687 35.4191L39.818 34.829L41.5375 34.3778L42.9939 34.1521L44.2221 34.0132L44.9239 33.9785L46.0293 33.9959L46.9592 34.0479L48.012 34.1695L49.5384 34.3951L50.679 34.6555L48.9419 34.5339L47.1171 34.4819L45.731 34.5339L44.4852 34.6555L43.2395 34.8463L42.0464 35.1587L40.8884 35.6274L40.3093 35.9571L39.6952 36.3217L39.046 36.8076L38.7302 37.0506L38.4494 37.2762L37.888 37.8837L37.4318 38.3697L36.9756 38.7341L36.4317 39.0465L35.8702 39.2548L35.4141 39.3069L35.028 39.1507L34.7648 38.8383L34.4139 38.5433L33.8875 38.4391L33.3085 38.5259L32.7295 38.8036L32.2207 39.116Z" fill="#113C71"/>
<path d="M59.3995 39.6539L58.8556 39.1158L57.487 38.005L56.0482 36.9983L54.5217 36.1305L52.89 35.4189L51.2407 34.8288L50.6792 34.6553L50.2932 34.6726L49.8545 34.742L49.5563 34.8635L49.3632 35.0544L49.3281 35.2454L49.3808 35.4537L49.5563 35.5925L50.03 35.6445L50.5388 35.6966L51.0476 35.8355L51.5389 36.0438L51.9776 36.3215L53.1531 37.1025L54.1884 37.9008L55.1008 38.7339L55.1534 37.8141V37.5884L55.2411 37.4496L55.399 37.3802L55.557 37.4323L55.6446 37.5711L56.3465 38.5431L56.4868 38.6992L56.6448 38.8208L57.1712 39.1505L57.294 39.2373L57.4343 39.4282L57.4694 39.6886L57.4343 40.1051V40.4349L57.4519 40.7994L57.5572 41.4415H58.6099L58.5573 41.5631L58.5398 41.6845V41.9102L58.645 42.3788L58.9433 42.8647L59.2591 43.2293L59.5749 43.4722L59.9609 43.5243L60.2593 43.4201L60.4522 43.2119L60.5575 42.9342L60.2943 42.3962L60.0136 41.7886L59.768 41.0944L59.5925 40.4175L59.3995 39.6539Z" fill="#5B7B36"/>
<path d="M65.2245 52.9487L65.1018 51.2304L64.821 49.5122L64.3999 47.8286L63.8209 46.1971L63.0839 44.6177L62.2242 43.1077L61.6452 42.292L61.4522 42.6044L61.189 43.2118L61.0135 43.8714L60.9609 44.5309L60.996 45.1731L61.1013 45.7285L61.4171 46.9955L61.8206 48.2625L62.3295 49.4775L62.9261 50.6403L63.6103 51.7858L63.6279 52.1503L63.6981 52.5322L63.8209 52.8446L64.0314 53.1223L64.3472 53.3306L64.7859 53.4694L65.2245 53.4867V52.9487Z" fill="#8B7936"/>
<path d="M48.521 55.188L49.0123 55.2574L49.3457 55.379L49.6439 55.5178L49.9247 55.6914L50.1879 55.8996L50.4861 56.1946L50.5739 56.3335V56.4723L50.4861 56.5765L50.3107 56.5939L50.1177 56.5245L49.8721 56.3509L49.5913 56.1946L49.2579 56.0558L48.9948 55.9691L48.6439 55.9517L48.3806 56.0211L48.0648 56.0558H47.7666L47.4682 55.9864L47.3279 55.8822L47.2226 55.7261L47.1875 55.5698L47.2402 55.4137L47.3806 55.2921L47.6262 55.2227L47.8718 55.2054L48.2578 55.188H48.521Z" fill="#A8BB38"/>
<path d="M49.4684 59.2317L49.1876 59.0754L48.8191 59.0928L48.3804 59.2317L48.047 59.0407L47.8364 58.7283L47.7487 58.2249V57.5827V57.3917L47.6434 57.2182L47.4679 57.1313H47.2925L46.5556 57.409L46.4152 57.3916L46.3099 57.3222L46.2572 57.2007L46.2748 57.0618L46.6082 56.437L46.6609 56.194L46.6082 55.9683L46.4152 55.8121L46.1519 55.7426L45.8536 55.8121L45.3447 56.0377L44.0464 56.8708L43.8358 55.5691L43.8534 55.0137L44.0639 54.4756L44.3974 54.0069L44.8536 53.6424L45.3799 53.4688L45.959 53.382L46.5556 53.4688L47.0819 53.6251L47.5732 53.9896L47.889 54.4236L48.047 54.5451L48.2575 54.5625L48.4506 54.5104L48.5735 54.4063L48.3804 53.7814L48.0997 53.2086L48.4331 52.8441L48.9946 51.9242L49.4157 50.9348L49.6789 49.9108L49.872 49.1471L50.258 48.4528L50.8721 47.8453L51.6968 47.2725L51.7144 46.8907L51.5214 46.8038L50.5914 46.7864L50.3983 46.6649L50.3807 46.4566L50.4685 46.2484L51.8196 44.7383L48.0999 42.7597L47.7139 42.6382H47.3279L47.0295 42.725L46.819 42.8986L46.661 43.1937L46.6083 43.5755L46.8365 45.4327L46.5732 45.6062L46.117 45.693L45.6258 45.6062L45.2047 45.3805L44.9063 45.016L44.7484 44.5821L44.7308 44.0961L44.8186 43.749L45.0993 43.1241L45.3274 42.534L45.4503 41.9092L45.4327 41.3885L45.3274 41.024L45.0993 40.7289L44.7659 40.6247L44.415 40.6595L43.9588 40.8157L42.7831 41.4405L42.4673 41.5447L42.0111 41.5621L41.3444 41.4927L40.7653 41.1975L40.3266 40.7983L39.3616 39.7395L38.8878 39.2014L38.5369 38.9411L38.2034 38.8369H37.8349L37.5542 38.9411L37.3436 39.0973L37.1857 39.3056L36.4312 39.4271L36.1153 39.5834L35.975 39.8438L35.9223 40.0694L35.6065 40.1736L35.2205 40.3645L34.8695 40.6249L34.6414 40.92L34.4834 41.2498L32.3779 40.9547L32.6938 41.3887L33.0974 41.7358L33.4834 42.0135L33.9045 42.2218L34.659 42.4475L35.4486 42.5343H36.0627L36.7997 42.4475L37.5015 42.3086L37.7472 46.4221L37.5541 47.6544L37.4663 48.8521V50.31L37.6594 51.6465L37.9577 52.8441L38.3788 53.7466L38.9052 54.545L39.7299 55.4649L39.765 55.1004L39.2561 53.3648L40.8703 55.3608L40.6773 56.6626L42.7477 58.537L43.0109 58.6759L43.3267 58.7627H43.6777L43.9935 58.6586L44.362 58.4503L44.6427 58.3462H44.9411L45.2394 58.4156L45.4675 58.5892L46.5379 59.6305L46.959 59.9256L47.4152 60.1339L47.924 60.2728L48.4153 60.3596L49.3979 60.2381L49.5558 60.1859L49.6523 60.2218C49.7443 60.0011 49.8202 59.7724 49.91 59.5508L49.4684 59.2317Z" fill="#5B7B36"/>
<path d="M61.1715 60.1864L60.9785 59.7177L60.6276 59.4053L60.1538 59.2838L59.6976 59.3185L59.2765 59.4747L59.101 59.5789L57.8201 58.9888L56.469 58.5375L55.0829 58.2424L53.3283 58.0688L52.5563 58.1036L51.8368 58.2598L51.135 58.5896L50.5384 59.0583L49.9243 59.5617L49.9101 59.5514C49.8202 59.7731 49.7443 60.0016 49.6524 60.2223L49.6962 60.2386L49.8893 60.4816L49.9595 60.8287L50.0122 61.5057L49.9595 62.0437L49.8366 62.4256L49.6787 62.8248L49.2225 63.6232L49.1172 64.0224V64.5258L49.205 64.9598L49.4857 65.411L50.17 66.1921L50.9771 66.9211L51.3106 67.2162L51.5211 67.546L51.644 67.9452L51.6616 68.3965L51.6265 68.7957L51.3808 69.9412L51.1176 70.7917L50.4333 72.2844L52.1528 71.729L53.7846 71.0694L55.3286 70.2884L55.9954 69.8024L57.171 68.7783L58.136 67.7369L59.066 66.6087L59.8907 65.3417L60.4347 64.3176L60.9085 63.0853L61.1366 62.1307L61.2595 61.3496V60.6901L61.1715 60.1864Z" fill="#3E8A41"/>
<path d="M44.8893 47.3604L44.7313 47.4818L44.6611 47.6728L44.6787 47.8984L44.7664 48.0546L44.977 48.2455L45.2577 48.3844L45.4682 48.4365L45.6613 48.4712L45.6262 49.2522V49.3216L45.6613 49.5126L45.8192 49.6687L46.0122 49.7208L46.2228 49.6861L46.328 49.5993L46.4157 49.2175V48.8183L46.3455 48.4191L46.135 48.0372L45.8718 47.7248L45.5384 47.4818L45.1349 47.3257H44.9946L44.8893 47.3604Z" fill="#243B97"/>
<path d="M50.03 41.6498L50.3985 41.8581L50.802 41.9969L51.2407 42.0316L51.7144 41.9969L51.8021 41.9275L51.8196 41.8407L51.6793 41.0944L51.4687 40.3654L51.1705 39.6365L50.7669 38.9422L50.3634 38.3348L50.3458 38.0744L49.4861 37.6405L48.6965 37.3454L47.8719 37.1546L46.8893 36.9463L46.1173 38.1612L45.0996 38.0397L45.2751 38.248L45.9418 38.3695L46.24 38.4562L46.5384 38.6298L48.0999 39.6191L49.2053 40.8341L49.7317 41.3548L50.03 41.6498Z" fill="#113C71"/>
<path d="M48.4333 42.4832L48.6263 42.3443L48.7492 42.1361L48.7667 41.9105L48.679 41.6501L48.0999 41.0253L47.4683 40.5046L46.7664 40.0533L46.0295 39.6889L45.24 39.4112L45.082 39.3765V39.7583L45.1171 39.9319L45.5207 40.6608L45.6962 40.6781L46.2751 40.7303L46.8191 40.8864L46.9244 40.9385L47.0648 41.06L47.1174 41.2335L47.0648 41.3898L46.9419 41.5286L46.8015 41.6848L46.7313 41.8931L46.7664 42.1014L46.8191 42.2055L47.0823 42.4138L47.3981 42.5179L47.7139 42.5873H47.9421L48.293 42.5353L48.4333 42.4832Z" fill="#26B572"/>
<path d="M51.8902 45.4684L51.8025 45.6073L51.7147 45.8156L51.6445 46.1107L52.013 45.9891L52.2236 45.9197L52.3464 45.8156L52.4341 45.6767L52.4516 45.5032L52.364 45.3643L52.1885 45.3296L52.013 45.3817L51.8902 45.4684Z" fill="#71C38A"/>
</svg>
