<svg width="90" height="91" viewBox="0 0 90 91" fill="none" xmlns="http://www.w3.org/2000/svg">
<rect y="0.5" width="90" height="90" rx="8" fill="#579BE4"/>
<path d="M59.9679 30.9467C59.6194 30.9206 59.271 30.9083 59.0082 30.9111C58.9025 30.9022 47.8387 30.0883 43.4089 44.669C39.5369 57.4144 30.5672 56.8488 30.0929 56.8132C29.9159 56.8132 29.7378 56.8092 29.5596 56.8009C23.235 56.5204 18.2798 51.337 18.2798 45.0001C18.2798 38.4863 23.579 33.1865 30.0929 33.1865C34.1308 33.1865 37.848 35.2171 40.0368 38.6187L41.9539 37.3852C39.3444 33.3285 34.9101 30.9064 30.093 30.9064C22.3223 30.9067 16 37.229 16 45.0003C16 52.56 21.9116 58.7443 29.4574 59.0788C29.6677 59.0883 29.8782 59.0916 29.9917 59.0887C30.0028 59.0899 30.1364 59.0999 30.3702 59.0999C32.3596 59.0999 41.6265 58.3784 45.591 45.3314C49.463 32.5849 58.435 33.1543 58.907 33.1866C59.2065 33.1866 59.5049 33.1983 59.7987 33.22C65.9229 33.6764 70.72 38.8504 70.72 45.0001C70.72 51.514 65.4208 56.8132 58.907 56.8132C54.8691 56.8132 51.153 54.7826 48.9643 51.381L47.0472 52.6145C49.6567 56.6712 54.0898 59.0933 58.907 59.0933C66.6777 59.0933 73 52.7709 73 45.0003C73 37.6638 67.2754 31.4907 59.9679 30.9467Z" fill="white"/>
</svg>
