<svg width="90" height="90" viewBox="0 0 90 90" fill="none" xmlns="http://www.w3.org/2000/svg">
<rect width="90" height="90" rx="8" fill="#94D2BD"/>
<path d="M59.9679 30.4467C59.6194 30.4206 59.271 30.4083 59.0082 30.4111C58.9025 30.4022 47.8387 29.5883 43.4089 44.169C39.5369 56.9144 30.5672 56.3488 30.0929 56.3132C29.9159 56.3132 29.7378 56.3092 29.5596 56.3009C23.235 56.0204 18.2798 50.837 18.2798 44.5001C18.2798 37.9863 23.579 32.6865 30.0929 32.6865C34.1308 32.6865 37.848 34.7171 40.0368 38.1187L41.9539 36.8852C39.3444 32.8285 34.9101 30.4064 30.093 30.4064C22.3223 30.4067 16 36.729 16 44.5003C16 52.06 21.9116 58.2443 29.4574 58.5788C29.6677 58.5883 29.8782 58.5916 29.9917 58.5887C30.0028 58.5899 30.1364 58.5999 30.3702 58.5999C32.3596 58.5999 41.6265 57.8784 45.591 44.8314C49.463 32.0849 58.435 32.6543 58.907 32.6866C59.2065 32.6866 59.5049 32.6983 59.7987 32.72C65.9229 33.1764 70.72 38.3504 70.72 44.5001C70.72 51.014 65.4208 56.3132 58.907 56.3132C54.8691 56.3132 51.153 54.2826 48.9643 50.881L47.0472 52.1145C49.6567 56.1712 54.0898 58.5933 58.907 58.5933C66.6777 58.5933 73 52.2709 73 44.5003C73 37.1638 67.2754 30.9907 59.9679 30.4467Z" fill="white"/>
</svg>
