<svg width="90" height="90" viewBox="0 0 90 90" fill="none" xmlns="http://www.w3.org/2000/svg">
<rect width="90" height="90" rx="8" fill="#003F4D"/>
<path d="M44.8381 13C42.8621 22.0902 39.8666 30.9585 35.9257 39.3851C33.9395 43.6322 31.7047 47.7906 30.3101 52.2675C28.9154 56.7439 28.4073 61.6566 29.9241 66.0933C31.2246 69.8971 34.0168 73.1688 37.5694 75.05C41.1219 76.9312 45.3977 77.4018 49.2743 76.3375C53.1508 75.2731 56.587 72.6846 58.6787 69.2517C60.7705 65.8189 61.4955 61.5779 60.6618 57.6448C59.9026 54.0639 57.9372 50.8548 55.7411 47.9264C53.545 44.9978 51.0819 42.2629 49.1084 39.18C44.2068 31.5229 42.6238 21.8187 44.838 13" fill="white"/>
<path d="M44.8381 13C42.8621 22.0902 39.8666 30.9585 35.9257 39.3851C33.9395 43.6322 31.7047 47.7906 30.3101 52.2675C28.9154 56.7439 28.4073 61.6566 29.9241 66.0933C31.2246 69.8971 34.0168 73.1688 37.5694 75.05C41.1219 76.9312 45.3977 77.4018 49.2743 76.3375C53.1508 75.2731 56.587 72.6846 58.6787 69.2517C60.7705 65.8189 61.4955 61.5779 60.6618 57.6448C59.9026 54.0639 57.9372 50.8548 55.7411 47.9264C53.545 44.9978 51.0819 42.2629 49.1084 39.18C44.2068 31.5229 42.6238 21.8187 44.838 13" fill="white"/>
<path d="M42.487 26.9172C40.1024 34.2238 37.3895 41.4233 34.3596 48.4863C33.3983 50.7275 32.4017 52.964 31.7424 55.3119C31.0832 57.6598 30.7694 60.1449 31.2003 62.5453C31.4326 63.8393 31.8825 65.0995 32.5735 66.2181C33.2645 67.3367 34.1999 68.3111 35.3211 68.9978C36.4423 69.6844 37.7508 70.0769 39.0654 70.0629C40.3802 70.0488 41.6959 69.6197 42.7321 68.8104C43.7887 67.985 44.5274 66.7912 44.9184 65.5086C45.3094 64.2261 45.3663 62.8573 45.213 61.5252C44.9063 58.8611 43.7891 56.3709 42.9159 53.8353C39.945 45.2077 39.7924 35.6347 42.487 26.917" fill="url(#paint0_linear_138_14)"/>
<defs>
<linearGradient id="paint0_linear_138_14" x1="26.6704" y1="44.4145" x2="48.5715" y2="44.7514" gradientUnits="userSpaceOnUse">
<stop stop-color="white"/>
<stop offset="1" stop-color="white" stop-opacity="0"/>
</linearGradient>
</defs>
</svg>
