<svg width="90" height="91" viewBox="0 0 90 91" fill="none" xmlns="http://www.w3.org/2000/svg">
<rect y="0.5" width="90" height="90" rx="8" fill="#215AA1"/>
<path d="M44.8381 13.5C42.8621 22.5902 39.8666 31.4585 35.9257 39.8851C33.9395 44.1322 31.7047 48.2906 30.3101 52.7675C28.9154 57.2439 28.4073 62.1566 29.9241 66.5933C31.2246 70.3971 34.0168 73.6688 37.5694 75.55C41.1219 77.4312 45.3977 77.9018 49.2743 76.8375C53.1508 75.7731 56.587 73.1846 58.6787 69.7517C60.7705 66.3189 61.4955 62.0779 60.6618 58.1448C59.9026 54.5639 57.9372 51.3548 55.7411 48.4264C53.545 45.4978 51.0819 42.7629 49.1084 39.68C44.2068 32.0229 42.6238 22.3187 44.838 13.5" fill="white"/>
<path d="M44.8381 13.5C42.8621 22.5902 39.8666 31.4585 35.9257 39.8851C33.9395 44.1322 31.7047 48.2906 30.3101 52.7675C28.9154 57.2439 28.4073 62.1566 29.9241 66.5933C31.2246 70.3971 34.0168 73.6688 37.5694 75.55C41.1219 77.4312 45.3977 77.9018 49.2743 76.8375C53.1508 75.7731 56.587 73.1846 58.6787 69.7517C60.7705 66.3189 61.4955 62.0779 60.6618 58.1448C59.9026 54.5639 57.9372 51.3548 55.7411 48.4264C53.545 45.4978 51.0819 42.7629 49.1084 39.68C44.2068 32.0229 42.6238 22.3187 44.838 13.5" fill="white"/>
<path d="M42.4867 27.4172C40.102 34.7238 37.3891 41.9233 34.3593 48.9863C33.3979 51.2275 32.4013 53.464 31.7421 55.8119C31.0828 58.1598 30.7691 60.6449 31.2 63.0453C31.4323 64.3393 31.8822 65.5995 32.5731 66.7181C33.2641 67.8367 34.1995 68.8111 35.3207 69.4978C36.442 70.1844 37.7504 70.5769 39.0651 70.5629C40.3798 70.5488 41.6956 70.1197 42.7317 69.3104C43.7883 68.485 44.5271 67.2912 44.918 66.0086C45.309 64.7261 45.3659 63.3573 45.2126 62.0252C44.906 59.3611 43.7887 56.8709 42.9155 54.3353C39.9446 45.7077 39.792 36.1347 42.4866 27.417" fill="url(#paint0_linear_157_429)"/>
<defs>
<linearGradient id="paint0_linear_157_429" x1="26.67" y1="44.9145" x2="48.5712" y2="45.2514" gradientUnits="userSpaceOnUse">
<stop stop-color="white"/>
<stop offset="1" stop-color="white" stop-opacity="0"/>
</linearGradient>
</defs>
</svg>
