<svg width="90" height="91" viewBox="0 0 90 91" fill="none" xmlns="http://www.w3.org/2000/svg">
<rect y="0.5" width="90" height="90" rx="8" fill="#3478D8"/>
<path d="M69.0003 50.21C68.6641 47.906 67.6156 45.7648 66.0017 44.0863C64.3878 42.4079 62.2894 41.2763 60.0003 40.85C59.6678 38.6513 58.7567 36.5806 57.3603 34.85C56.0684 33.264 54.3925 32.0346 52.4917 31.2785C50.591 30.5224 48.5286 30.2648 46.5003 30.53C43.6308 31.0223 40.9989 32.4331 39.0003 34.55C36.5317 34.1326 33.9957 34.6349 31.8726 35.9618C29.7495 37.2887 28.1868 39.3481 27.4803 41.75C25.5759 42.3049 23.9081 43.4734 22.7363 45.0738C21.5644 46.6742 20.9541 48.617 21.0003 50.6C20.8375 51.874 20.9494 53.168 21.3282 54.3951C21.707 55.6223 22.3441 56.7541 23.1967 57.7146C24.0492 58.6752 25.0974 59.4421 26.2709 59.9639C27.4444 60.4858 28.716 60.7504 30.0003 60.74H59.4603C62.2323 60.5209 64.8172 59.2552 66.6903 57.2C67.5611 56.2735 68.2191 55.1678 68.6181 53.9604C69.0171 52.753 69.1475 51.4731 69.0003 50.21ZM65.2803 55.79C63.8229 57.4525 61.8046 58.5204 59.6103 58.79H30.0003C29.7003 58.79 23.1903 58.79 23.1903 50.75C23.1375 48.8505 23.8137 47.0027 25.0799 45.5858C26.3462 44.1689 28.1067 43.2902 30.0003 43.13H30.5103C30.7672 43.0348 30.9783 42.8454 31.1009 42.6003C31.2234 42.3552 31.2482 42.0727 31.1703 41.81C31.1125 41.5528 30.9602 41.3267 30.7434 41.1766C30.5266 41.0265 30.2614 40.9635 30.0003 41C30.6709 39.5365 31.7829 38.3196 33.1803 37.52C34.4163 36.8908 35.7781 36.5479 37.1647 36.5167C38.5514 36.4855 39.9272 36.7669 41.1903 37.34C41.3179 37.3928 41.455 37.419 41.5932 37.4172C41.7313 37.4153 41.8676 37.3854 41.9938 37.3293C42.1201 37.2732 42.2336 37.1921 42.3275 37.0908C42.4215 36.9895 42.4938 36.8701 42.5403 36.74C42.6511 36.4854 42.6565 36.1972 42.5552 35.9385C42.454 35.6799 42.2545 35.4719 42.0003 35.36L41.3703 35.15C42.8823 33.7855 44.7397 32.8619 46.7403 32.48C48.4216 32.2367 50.1373 32.4383 51.7164 33.0647C53.2955 33.6911 54.6829 34.7204 55.7403 36.05C57.4755 38.3138 58.3476 41.1216 58.2003 43.97C58.2003 44.2485 58.3109 44.5156 58.5078 44.7125C58.7047 44.9094 58.9718 45.02 59.2503 45.02C59.4743 44.9535 59.6697 44.814 59.8056 44.6238C59.9414 44.4336 60.0099 44.2036 60.0003 43.97C60.0003 43.64 60.0003 43.37 60.0003 43.04C61.7486 43.4582 63.3316 44.3904 64.5454 45.7164C65.7592 47.0425 66.548 48.7016 66.8103 50.48C66.9321 51.434 66.845 52.4031 66.5549 53.32C66.2648 54.2369 65.7787 55.0798 65.1303 55.79H65.2803Z" fill="white"/>
<path d="M51.3897 39.7401C51.4194 39.6525 51.4194 39.5576 51.3897 39.4701C51.3645 39.334 51.3126 39.2042 51.2371 39.0882C51.1615 38.9722 51.0638 38.8723 50.9494 38.7942C50.8351 38.7162 50.7065 38.6615 50.571 38.6333C50.4354 38.6051 50.2957 38.604 50.1597 38.6301C48.6535 38.9576 47.1315 39.2079 45.5997 39.3801C45.3554 39.4218 45.1338 39.5486 44.974 39.738C44.8142 39.9274 44.7266 40.1673 44.7266 40.4151C44.7266 40.6629 44.8142 40.9027 44.974 41.0921C45.1338 41.2816 45.3554 41.4083 45.5997 41.4501L47.7597 41.1501L44.9997 45.0201C44.8618 45.1696 44.7716 45.3569 44.7409 45.5579C44.7102 45.759 44.7404 45.9647 44.8275 46.1485C44.9145 46.3323 45.0546 46.4859 45.2296 46.5896C45.4046 46.6932 45.6067 46.7421 45.8097 46.7301C45.9625 46.7308 46.1137 46.6991 46.2533 46.637C46.393 46.575 46.5179 46.484 46.6197 46.3701L49.6197 42.5601L49.7997 44.0901C49.7984 44.2389 49.8288 44.3863 49.8888 44.5226C49.9489 44.6588 50.0372 44.7807 50.1479 44.8802C50.2586 44.9796 50.3892 45.0545 50.5311 45.0996C50.6729 45.1448 50.8227 45.1593 50.9706 45.1421C51.1185 45.125 51.261 45.0766 51.3887 45.0002C51.5165 44.9238 51.6265 44.8211 51.7115 44.6989C51.7966 44.5767 51.8546 44.4378 51.8819 44.2915C51.9092 44.1451 51.905 43.9947 51.8697 43.8501C51.6297 41.6301 51.3897 39.8901 51.3897 39.8901V39.7401Z" fill="white"/>
<path d="M43.7699 52.2798L41.6699 52.7898L44.3399 49.0098C44.4252 48.8992 44.4868 48.7723 44.521 48.6369C44.5552 48.5015 44.5612 48.3606 44.5387 48.2228C44.5162 48.085 44.4657 47.9532 44.3902 47.8358C44.3147 47.7183 44.2159 47.6176 44.0999 47.5398C43.9878 47.4586 43.8607 47.4004 43.726 47.3686C43.5913 47.3367 43.4516 47.3317 43.315 47.3541C43.1784 47.3764 43.0475 47.4255 42.9299 47.4985C42.8124 47.5716 42.7104 47.6672 42.6299 47.7798L39.9299 51.7398C39.9299 51.2898 39.7199 50.7798 39.5999 50.2398C39.5716 50.1072 39.5171 49.9816 39.4396 49.8702C39.3621 49.7589 39.2632 49.6642 39.1487 49.5916C39.0342 49.5189 38.9063 49.4699 38.7726 49.4473C38.6389 49.4246 38.502 49.4289 38.3699 49.4598C38.1005 49.5176 37.8646 49.6789 37.7131 49.909C37.5616 50.1391 37.5066 50.4195 37.5599 50.6898C38.0399 52.8198 38.2799 54.4698 38.2799 54.5298C38.2499 54.6682 38.2499 54.8114 38.2799 54.9498C38.3494 55.1663 38.4854 55.3553 38.6685 55.49C38.8516 55.6246 39.0726 55.6981 39.2999 55.6998H39.5999C39.5999 55.6998 41.9999 54.7398 44.2199 54.3198C44.4667 54.2382 44.6745 54.068 44.803 53.8421C44.9315 53.6161 44.9717 53.3505 44.9157 53.0967C44.8597 52.8429 44.7115 52.6188 44.4999 52.4679C44.2882 52.317 44.0281 52.25 43.7699 52.2798Z" fill="white"/>
</svg>
