<svg width="90" height="90" viewBox="0 0 90 90" fill="none" xmlns="http://www.w3.org/2000/svg">
<rect width="90" height="90" rx="8" fill="#DFD600"/>
<path d="M62.0773 38.48C62.0763 42.947 60.3269 47.2307 57.2137 50.3889C54.1006 53.547 49.8787 55.3209 45.4768 55.3204C41.0749 55.3199 36.8535 53.545 33.7411 50.3861C30.6286 47.2273 28.8801 42.9432 28.8801 38.4761C28.8801 34.0091 30.6286 29.725 33.7411 26.5661C36.8535 23.4072 41.0749 21.6323 45.4768 21.6318C49.8787 21.6313 54.1006 23.4052 57.2137 26.5634C60.3269 29.7215 62.0763 34.0052 62.0773 38.4723" fill="white"/>
<path d="M50.3377 53.9422C53.5393 52.4723 60.5983 47.7445 60.6331 38.0762C60.667 28.3527 52.7801 21.0392 44.7338 21.2669C36.8107 21.4937 28.3041 26.8075 28.2444 38.0394C28.1848 49.216 37.3993 54.6704 51.8268 58.4783C60.4557 60.8062 30.9894 60.545 34.468 61.6516C38.7579 63.0161 58.5832 64.2918 52.6117 65.8362C46.8682 67.3212 37.6673 66.5812 34.3698 68.3926C31.4128 70.0174 66.566 69.8525 48.6864 73.4628" stroke="white" stroke-linecap="round" stroke-linejoin="round"/>
<path d="M38.3149 34.9027C42.0645 36.6966 45.0623 39.4472 50.8812 34.3335" stroke="#EE9B00" stroke-linecap="round"/>
<path d="M23.5237 21.1782L27.1192 25.5737" stroke="white" stroke-linecap="round"/>
<path d="M35.191 11.9819C35.1668 11.9819 35.1427 11.9819 35.191 11.9819V11.9819Z" stroke="black" stroke-width="0.836729"/>
<path d="M33.8704 12.0635L35.6319 16.8649" stroke="white" stroke-linecap="round"/>
<path d="M51.1883 10.5171L50.1611 15.6442" stroke="white" stroke-linecap="round"/>
<path d="M67.4794 18.4927L63.2966 22.1549" stroke="white" stroke-linecap="round"/>
<path d="M40.5784 27.0585C40.5782 27.7859 40.3148 28.4833 39.8459 28.9976C39.377 29.5118 38.7411 29.8006 38.0781 29.8006C37.4151 29.8005 36.7793 29.5115 36.3105 28.9972C35.8417 28.4829 35.5784 27.7853 35.5784 27.058C35.5784 26.3307 35.8417 25.6331 36.3105 25.1188C36.7793 24.6045 37.4151 24.3155 38.0781 24.3154C38.7411 24.3154 39.377 24.6042 39.8459 25.1184C40.3148 25.6327 40.5782 26.3301 40.5784 27.0575" fill="#EE9B00"/>
</svg>
